<svg width="264" height="58" viewBox="0 0 264 58" fill="none" xmlns="http://www.w3.org/2000/svg">
<rect y="0.113708" width="264" height="57" rx="4" fill="#C61BE2" fill-opacity="0.15"/>
<rect x="0.5" y="0.613708" width="263" height="56" rx="3.5" stroke="#C61BE2" stroke-opacity="0.7"/>
<!-- <path d="M104 28.1137V25.2137C104 24.6614 103.552 24.2137 103 24.2137H100.136C99.7478 24.2137 99.3948 23.9894 99.2302 23.6381L99.0198 23.1893C98.8552 22.838 98.5022 22.6137 98.1143 22.6137H96C95.4477 22.6137 95 23.0614 95 23.6137V29.6137C95 30.166 95.4477 30.6137 96 30.6137H98" stroke="white" stroke-linejoin="round"/>
<path d="M101.114 26.6137H99C98.4477 26.6137 98 27.0614 98 27.6137V33.6137C98 34.166 98.4477 34.6137 99 34.6137H106C106.552 34.6137 107 34.166 107 33.6137V29.2137C107 28.6614 106.552 28.2137 106 28.2137H103.136C102.748 28.2137 102.395 27.9894 102.23 27.6381L102.02 27.1893C101.855 26.838 101.502 26.6137 101.114 26.6137Z" stroke="white" stroke-linejoin="round"/>
<path d="M118.381 35.1137V25.2955H119.838V26.7785H119.94C120.119 26.2927 120.443 25.8985 120.912 25.596C121.381 25.2934 121.909 25.1421 122.497 25.1421C122.608 25.1421 122.746 25.1442 122.913 25.1485C123.079 25.1528 123.205 25.1592 123.29 25.1677V26.7018C123.239 26.689 123.121 26.6698 122.938 26.6442C122.759 26.6144 122.57 26.5995 122.369 26.5995C121.892 26.5995 121.466 26.6996 121.091 26.8999C120.72 27.096 120.426 27.3687 120.209 27.7181C119.996 28.0633 119.889 28.4575 119.889 28.9006V35.1137H118.381ZM128.768 35.3183C127.881 35.3183 127.104 35.1073 126.435 34.6854C125.77 34.2636 125.25 33.6734 124.875 32.9148C124.504 32.1563 124.319 31.27 124.319 30.2558C124.319 29.233 124.504 28.3403 124.875 27.5775C125.25 26.8147 125.77 26.2224 126.435 25.8005C127.104 25.3786 127.881 25.1677 128.768 25.1677C129.654 25.1677 130.43 25.3786 131.094 25.8005C131.763 26.2224 132.283 26.8147 132.654 27.5775C133.029 28.3403 133.217 29.233 133.217 30.2558C133.217 31.27 133.029 32.1563 132.654 32.9148C132.283 33.6734 131.763 34.2636 131.094 34.6854C130.43 35.1073 129.654 35.3183 128.768 35.3183ZM128.768 33.9631C129.441 33.9631 129.995 33.7906 130.43 33.4454C130.864 33.1002 131.186 32.6464 131.395 32.0839C131.604 31.5214 131.708 30.912 131.708 30.2558C131.708 29.5995 131.604 28.988 131.395 28.4212C131.186 27.8545 130.864 27.3964 130.43 27.0469C129.995 26.6975 129.441 26.5228 128.768 26.5228C128.094 26.5228 127.54 26.6975 127.106 27.0469C126.671 27.3964 126.349 27.8545 126.141 28.4212C125.932 28.988 125.827 29.5995 125.827 30.2558C125.827 30.912 125.932 31.5214 126.141 32.0839C126.349 32.6464 126.671 33.1002 127.106 33.4454C127.54 33.7906 128.094 33.9631 128.768 33.9631ZM141.707 31.0995V25.2955H143.215V35.1137H141.707V33.4518H141.605C141.374 33.9504 141.017 34.3744 140.531 34.7238C140.045 35.069 139.431 35.2415 138.69 35.2415C138.076 35.2415 137.531 35.1073 137.053 34.8389C136.576 34.5661 136.201 34.157 135.928 33.6116C135.656 33.0619 135.519 32.3694 135.519 31.5342V25.2955H137.028V31.4319C137.028 32.1478 137.228 32.7188 137.629 33.145C138.034 33.5711 138.549 33.7842 139.176 33.7842C139.551 33.7842 139.932 33.6883 140.32 33.4965C140.712 33.3048 141.04 33.0107 141.304 32.6144C141.573 32.2181 141.707 31.7131 141.707 31.0995ZM150.248 25.2955V26.5739H145.16V25.2955H150.248ZM146.643 22.9433H148.152V32.3012C148.152 32.7273 148.213 33.0469 148.337 33.26C148.465 33.4688 148.627 33.6094 148.823 33.6819C149.023 33.7501 149.234 33.7842 149.456 33.7842C149.622 33.7842 149.758 33.7756 149.865 33.7586C149.971 33.7373 150.056 33.7202 150.12 33.7075L150.427 35.0626C150.325 35.1009 150.182 35.1393 149.999 35.1776C149.816 35.2202 149.583 35.2415 149.302 35.2415C148.876 35.2415 148.458 35.1499 148.049 34.9667C147.645 34.7835 147.308 34.5043 147.039 34.1293C146.775 33.7543 146.643 33.2813 146.643 32.7103V22.9433ZM156.528 35.3183C155.582 35.3183 154.766 35.1094 154.08 34.6918C153.398 34.27 152.872 33.6819 152.501 32.9276C152.135 32.1691 151.952 31.287 151.952 30.2813C151.952 29.2756 152.135 28.3893 152.501 27.6222C152.872 26.8509 153.388 26.2501 154.048 25.8197C154.713 25.385 155.489 25.1677 156.375 25.1677C156.886 25.1677 157.391 25.2529 157.89 25.4234C158.388 25.5938 158.842 25.8708 159.251 26.2543C159.661 26.6336 159.987 27.1364 160.229 27.7629C160.472 28.3893 160.594 29.1606 160.594 30.0768V30.716H153.026V29.412H159.06C159.06 28.858 158.949 28.3637 158.727 27.929C158.51 27.4944 158.199 27.1514 157.794 26.8999C157.393 26.6485 156.92 26.5228 156.375 26.5228C155.774 26.5228 155.254 26.6719 154.815 26.9702C154.381 27.2643 154.046 27.6478 153.812 28.1208C153.577 28.5938 153.46 29.1009 153.46 29.6421V30.5114C153.46 31.2529 153.588 31.8815 153.844 32.3971C154.104 32.9085 154.464 33.2984 154.924 33.5668C155.384 33.831 155.919 33.9631 156.528 33.9631C156.925 33.9631 157.283 33.9077 157.602 33.7969C157.926 33.6819 158.205 33.5114 158.44 33.2856C158.674 33.0555 158.855 32.77 158.983 32.429L160.44 32.8381C160.287 33.3325 160.029 33.7671 159.667 34.1421C159.305 34.5129 158.857 34.8026 158.325 35.0114C157.792 35.216 157.193 35.3183 156.528 35.3183ZM169.843 27.4944L168.488 27.8779C168.403 27.6521 168.277 27.4326 168.111 27.2195C167.949 27.0022 167.727 26.8232 167.446 26.6826C167.165 26.542 166.805 26.4717 166.366 26.4717C165.765 26.4717 165.264 26.6102 164.864 26.8871C164.467 27.1599 164.269 27.5072 164.269 27.929C164.269 28.304 164.406 28.6002 164.678 28.8175C164.951 29.0349 165.377 29.216 165.957 29.3609L167.414 29.7188C168.292 29.9319 168.946 30.2579 169.376 30.6968C169.807 31.1315 170.022 31.6918 170.022 32.3779C170.022 32.9404 169.86 33.4433 169.536 33.8864C169.217 34.3296 168.769 34.679 168.194 34.9347C167.619 35.1904 166.95 35.3183 166.187 35.3183C165.185 35.3183 164.357 35.1009 163.7 34.6663C163.044 34.2316 162.629 33.5967 162.454 32.7614L163.886 32.4035C164.022 32.9319 164.28 33.3282 164.659 33.5924C165.043 33.8566 165.543 33.9887 166.161 33.9887C166.864 33.9887 167.423 33.8396 167.836 33.5413C168.254 33.2387 168.462 32.8765 168.462 32.4546C168.462 32.1137 168.343 31.8282 168.104 31.5981C167.866 31.3637 167.499 31.189 167.005 31.0739L165.369 30.6904C164.469 30.4773 163.809 30.1471 163.387 29.6996C162.969 29.2479 162.761 28.6833 162.761 28.0058C162.761 27.4518 162.916 26.9617 163.227 26.5356C163.543 26.1094 163.971 25.7749 164.512 25.532C165.058 25.2891 165.675 25.1677 166.366 25.1677C167.337 25.1677 168.1 25.3808 168.654 25.8069C169.212 26.233 169.609 26.7955 169.843 27.4944Z" fill="white" fill-opacity="0.7"/> -->
</svg>
